<svg width="82" height="74" viewBox="0 0 82 74" fill="none" xmlns="http://www.w3.org/2000/svg">
<path d="M58.4 11.1V2.8C58.4 2.1 58.1 1.3 57.6 0.8C57 0.3 56.3 0 55.6 0C54.9 0 54.1 0.3 53.6 0.8C53.1 1.3 52.8 2 52.8 2.8V11.1C52.8 11.8 53.1 12.6 53.6 13.1C54.1 13.6 54.8 13.9 55.6 13.9C56.4 13.9 57.1 13.6 57.6 13.1C58.1 12.6 58.4 11.9 58.4 11.1Z" fill="#FFFEFE"/>
<path d="M55.2 15.5C53.4 15.5 51.7 15.9 50.1 16.7C48.5 17.5 47.2 18.7 46.2 20.1C46 20.4 45.8 20.7 45.7 21.1C45.6 21.5 45.6 21.8 45.6 22.2C45.7 22.6 45.8 22.9 46 23.3C46.2 23.6 46.5 23.9 46.8 24.1C47.1 24.3 47.5 24.5 47.8 24.6C48.2 24.7 48.6 24.7 48.9 24.6C49.3 24.5 49.6 24.4 49.9 24.2C50.2 24 50.5 23.7 50.7 23.4C51.4 22.5 52.3 21.8 53.4 21.4C54.5 21 55.6 21 56.7 21.4C57.8 21.7 58.7 22.4 59.4 23.3C60.1 24.2 60.4 25.3 60.4 26.5C60.4 27.2 60.3 27.9 60 28.5C59.7 29.1 59.3 29.7 58.8 30.2C58.5 30.5 58.3 30.8 58.2 31.1C58.1 31.4 58 31.8 58 32.2C58 32.6 58.1 32.9 58.2 33.3C58.3 33.6 58.5 34 58.8 34.2C59.1 34.5 59.4 34.7 59.7 34.8C60 34.9 60.4 35 60.8 35C61.2 35 61.5 34.9 61.9 34.8C62.2 34.7 62.6 34.5 62.8 34.2C64.3 32.7 65.4 30.7 65.8 28.6C66.2 26.5 66 24.3 65.2 22.3C64.4 20.3 63 18.6 61.2 17.4C59.5 16.2 57.3 15.5 55.2 15.5Z" fill="#FFFEFE"/>
<path d="M82 26.4C82 25.7 81.7 24.9 81.2 24.4C80.7 23.9 80 23.6 79.2 23.6H70.9C70.2 23.6 69.4 23.9 68.9 24.4C68.4 24.9 68.1 25.6 68.1 26.4C68.1 27.1 68.4 27.9 68.9 28.4C69.4 28.9 70.1 29.2 70.9 29.2H79.2C79.9 29.2 80.7 28.9 81.2 28.4C81.7 27.8 82 27.1 82 26.4Z" fill="#FFFEFE"/>
<path d="M36.9 7.70002C36.4 8.20002 36.1 8.90002 36.1 9.70002C36.1 10.4 36.4 11.2 36.9 11.7L42.8 17.6C43.3 18.1 44 18.4 44.8 18.4C45.5 18.4 46.2 18.1 46.8 17.6C47.3 17.1 47.6 16.4 47.6 15.6C47.6 14.9 47.3 14.2 46.8 13.6L40.9 7.70002C40.4 7.20002 39.7 6.90002 38.9 6.90002C38.1 6.90002 37.4 7.20002 36.9 7.70002Z" fill="#FFFEFE"/>
<path d="M64.4 39.1L70.3 45C70.8 45.5 71.5 45.8 72.3 45.8C73 45.8 73.7 45.5 74.3 45C74.8 44.5 75.1 43.8 75.1 43C75.1 42.3 74.8 41.6 74.3 41L68.4 35.1C67.9 34.6 67.2 34.3 66.4 34.3C65.7 34.3 65 34.6 64.4 35.1C63.9 35.6 63.6 36.3 63.6 37.1C63.6 37.9 63.9 38.6 64.4 39.1Z" fill="#FFFEFE"/>
<path d="M74.3 11.7C74.8 11.2 75.1 10.5 75.1 9.70002C75.1 9.00002 74.8 8.30002 74.3 7.70002C73.8 7.20002 73.1 6.90002 72.3 6.90002C71.5 6.90002 70.8 7.20002 70.3 7.70002L64.4 13.6C64.1 13.9 63.9 14.2 63.8 14.5C63.7 14.8 63.6 15.2 63.6 15.6C63.6 16 63.7 16.3 63.8 16.7C63.9 17 64.2 17.4 64.4 17.6C64.6 17.8 65 18.1 65.3 18.2C65.6 18.3 66 18.4 66.4 18.4C66.8 18.4 67.1 18.3 67.5 18.2C67.8 18.1 68.2 17.8 68.4 17.6L74.3 11.7Z" fill="#FFFEFE"/>
<path d="M14.4 27.4C13.5 27.2 12.6 27.1 11.7 27.1C8.6 27.1 5.6 28.3 3.4 30.5C1.2 32.7 0 35.7 0 38.8C0 41.9 1.2 44.9 3.4 47.1C5.6 49.3 8.6 50.5 11.7 50.5C12.4 50.5 13.2 50.2 13.7 49.7C14.2 49.2 14.5 48.5 14.5 47.7C14.5 47 14.2 46.2 13.7 45.7C13.2 45.2 12.5 44.9 11.7 44.9C10.8 44.9 9.8 44.7 9 44.3C8.2 43.9 7.4 43.3 6.9 42.6C6.4 41.9 5.9 41 5.8 40.1C5.6 39.2 5.6 38.2 5.9 37.3C6.1 36.4 6.6 35.6 7.2 34.9C7.8 34.2 8.6 33.6 9.5 33.3C10.4 32.9 11.3 32.8 12.2 32.9C13.1 33 14 33.2 14.8 33.7C15.2 33.9 15.6 34 16.1 34.1C16.5 34.1 17 34 17.4 33.9C17.8 33.7 18.2 33.5 18.4 33.1C18.7 32.8 18.9 32.4 19 31.9C19.5 29.6 20.8 27.5 22.7 25.9C24.5 24.4 26.8 23.5 29.2 23.4C31.6 23.3 33.9 24 35.9 25.4C37.8 26.8 39.3 28.8 39.9 31.1C40.1 31.8 40.6 32.4 41.2 32.8C41.8 33.2 42.6 33.3 43.3 33.1C44.1 32.9 45 32.8 45.9 33C46.8 33.1 47.6 33.5 48.3 33.9C49 34.4 49.6 35 50.1 35.7C50.6 36.4 50.9 37.3 51 38.1C51.1 39 51 39.8 50.8 40.7C50.5 41.5 50.1 42.3 49.5 42.9C48.9 43.6 48.2 44.1 47.4 44.4C46.6 44.8 45.8 44.9 44.9 44.9H26.9C26.2 44.9 25.4 45.2 24.9 45.7C24.4 46.2 24.1 46.9 24.1 47.7C24.1 48.4 24.4 49.2 24.9 49.7C25.4 50.2 26.1 50.5 26.9 50.5H44.9C46.5 50.5 48 50.2 49.5 49.6C50.9 49 52.3 48.1 53.4 47C54.5 45.9 55.4 44.6 55.9 43.1C56.5 41.6 56.8 40.1 56.7 38.5C56.7 36.9 56.3 35.4 55.7 34C55.1 32.6 54.1 31.3 53 30.2C51.9 29.1 50.5 28.3 49 27.8C47.5 27.3 46 27 44.4 27.1C43.1 24.2 40.9 21.8 38.3 20.2C35.6 18.5 32.5 17.7 29.4 17.7C26.2 17.7 23.2 18.7 20.5 20.4C17.8 22.1 15.7 24.5 14.4 27.4Z" fill="#FFFEFE"/>
</svg>
