<svg width="78" height="62" viewBox="0 0 78 62" fill="none" xmlns="http://www.w3.org/2000/svg">
<g clip-path="url(#clip0_9_37)">
<path d="M66.4 12.8C65.3 11.8 63.9 11.2 62.4 11.2H55.8V2.8C55.8 2.1 55.5 1.4 55 0.8C54.5 0.3 53.8 0 53 0H25C24.3 0 23.6 0.3 23 0.8C22.5 1.3 22.2 2 22.2 2.8V11.2H15.5C14 11.2 12.6 11.8 11.5 12.8L1.6 22.7C1.1 23.2 0.7 23.8 0.4 24.5C0.1 25.2 0 26 0 26.7V44.5C0 46 0.6 47.4 1.6 48.5C2.7 49.6 4.1 50.1 5.6 50.1H22.3V58.5C22.3 59.2 22.6 59.9 23.1 60.5C23.6 61 24.3 61.3 25.1 61.3H53.1C53.8 61.3 54.5 61 55.1 60.5C55.6 60 55.9 59.3 55.9 58.5V50.1H72.5C74 50.1 75.4 49.5 76.5 48.5C77.6 47.5 78.1 46 78.1 44.5V26.7C78.1 25.2 77.5 23.8 76.5 22.7L66.4 12.8ZM50.3 55.7H27.9V42.7H50.3V55.7ZM72.4 44.6H55.8V40C55.8 39.3 55.5 38.6 55 38C54.5 37.5 53.8 37.2 53 37.2H25C24.3 37.2 23.6 37.5 23 38C22.5 38.5 22.2 39.2 22.2 40V44.6H5.5V26.7L15.5 16.7H22.2V22.6C22.2 23.3 22.5 24 23 24.6C23.5 25.1 24.2 25.4 25 25.4C25.7 25.4 26.4 25.1 27 24.6C27.5 24.1 27.8 23.4 27.8 22.6V5.6H50.2V22.6C50.2 23.3 50.5 24 51 24.6C51.5 25.1 52.2 25.4 53 25.4C53.8 25.4 54.4 25.1 55 24.6C55.5 24.1 55.8 23.4 55.8 22.6V16.7H62.4L72.4 26.7V44.6Z" fill="#FFFEFE"/>
<path d="M64.1 37.6C65.6 37.6 66.9 36.4 66.9 34.8C66.9 33.3 65.7 32 64.1 32C62.6 32 61.3 33.2 61.3 34.8C61.3 36.4 62.5 37.6 64.1 37.6Z" fill="#FFFEFE"/>
</g>
<defs>
<clipPath id="clip0_9_37">
<rect width="78" height="62" fill="white"/>
</clipPath>
</defs>
</svg>
