<svg width="140" height="20" viewBox="0 0 140 20" fill="none" xmlns="http://www.w3.org/2000/svg">
<path d="M0.0169983 9.754C0.0169983 8.66744 0.217595 7.59758 0.618789 6.54445C1.0367 5.49132 1.63849 4.54684 2.42416 3.71102C3.20983 2.8752 4.16267 2.19818 5.28267 1.67997C6.40267 1.16176 7.68146 0.90266 9.11907 0.90266C10.8409 0.90266 12.3286 1.26206 13.5824 1.98087C14.8528 2.68296 15.7973 3.61908 16.4158 4.78923L12.6797 7.44714C12.5125 7.01251 12.2868 6.65311 12.0027 6.36893C11.7352 6.08475 11.4343 5.85908 11.1 5.69191C10.7656 5.52475 10.4146 5.40773 10.0468 5.34087C9.69579 5.274 9.3531 5.24057 9.01877 5.24057C8.31668 5.24057 7.70653 5.38266 7.18833 5.66684C6.68685 5.9343 6.26894 6.2937 5.93461 6.74505C5.617 7.17967 5.37461 7.68117 5.20744 8.24953C5.057 8.80117 4.98177 9.35281 4.98177 9.90445C4.98177 10.523 5.07371 11.1164 5.25759 11.6847C5.44147 12.2531 5.70894 12.7546 6.05998 13.1892C6.41103 13.6239 6.8373 13.9749 7.33877 14.2424C7.85698 14.4931 8.4337 14.6185 9.06892 14.6185C9.40325 14.6185 9.74594 14.585 10.097 14.5182C10.448 14.4346 10.7824 14.3092 11.1 14.1421C11.4343 13.9582 11.7268 13.7325 11.9776 13.465C12.245 13.1809 12.454 12.8382 12.6044 12.437L16.5913 14.8191C16.3238 15.471 15.9143 16.0561 15.3627 16.5743C14.8277 17.0925 14.2092 17.5271 13.5071 17.8782C12.8218 18.2292 12.0779 18.4967 11.2755 18.6806C10.4898 18.8645 9.72086 18.9564 8.96862 18.9564C7.64803 18.9564 6.4361 18.6973 5.33282 18.1791C4.24625 17.6442 3.30177 16.9421 2.49938 16.0728C1.71371 15.2036 1.10356 14.2173 0.668939 13.114C0.234312 12.0107 0.0169983 10.8907 0.0169983 9.754ZM17.9054 0.501465H22.6695V13.5653C22.6695 14.5683 23.0791 15.0698 23.8982 15.0698C24.0988 15.0698 24.3161 15.0364 24.5501 14.9695C24.7842 14.9027 25.0015 14.8107 25.2021 14.6937L25.8039 18.2042C25.2355 18.4716 24.5919 18.6806 23.8731 18.831C23.171 18.9815 22.5024 19.0567 21.8672 19.0567C20.5967 19.0567 19.6188 18.7307 18.9334 18.0788C18.248 17.4268 17.9054 16.4824 17.9054 15.2453V0.501465ZM33.4132 19.0567C32.2598 19.0567 31.2318 18.8812 30.3291 18.5301C29.4264 18.1624 28.6658 17.6692 28.0473 17.0507C27.4455 16.4322 26.9858 15.7218 26.6682 14.9194C26.3506 14.117 26.1918 13.2728 26.1918 12.3868C26.1918 11.434 26.3422 10.5313 26.6431 9.67878C26.9607 8.82624 27.4204 8.08236 28.0222 7.44714C28.6407 6.81191 29.393 6.31042 30.2789 5.94266C31.1816 5.55818 32.2264 5.36594 33.4132 5.36594C34.5834 5.36594 35.6198 5.55818 36.5225 5.94266C37.4252 6.31042 38.1774 6.81191 38.7792 7.44714C39.3977 8.06564 39.8574 8.79281 40.1583 9.62863C40.4759 10.4477 40.6347 11.3086 40.6347 12.2113C40.6347 12.4621 40.618 12.7212 40.5846 12.9886C40.5679 13.2394 40.5428 13.465 40.5094 13.6656H31.2568C31.307 14.3677 31.5661 14.8776 32.0341 15.1952C32.5022 15.4961 33.0121 15.6465 33.5637 15.6465C34.0819 15.6465 34.5667 15.5295 35.018 15.2955C35.4861 15.0615 35.7953 14.7355 35.9458 14.3176L39.9828 15.471C39.4479 16.5242 38.6204 17.385 37.5004 18.0537C36.3971 18.7224 35.0347 19.0567 33.4132 19.0567ZM35.5195 10.8071C35.4359 10.1719 35.2019 9.67042 34.8174 9.30266C34.4329 8.9349 33.9398 8.75102 33.338 8.75102C32.7362 8.75102 32.2431 8.9349 31.8586 9.30266C31.4741 9.67042 31.2401 10.1719 31.1565 10.8071H35.5195ZM46.0853 19.0567C45.4334 19.0567 44.8232 18.948 44.2549 18.7307C43.6865 18.5134 43.1934 18.2209 42.7755 17.8531C42.3743 17.4686 42.0567 17.0173 41.8227 16.4991C41.5886 15.9809 41.4716 15.4209 41.4716 14.8191C41.4716 14.1504 41.6137 13.5403 41.8979 12.9886C42.1821 12.437 42.5749 11.9606 43.0764 11.5594C43.5779 11.1582 44.1713 10.8489 44.8567 10.6316C45.5588 10.4143 46.3277 10.3056 47.1635 10.3056C48.2334 10.3056 49.1194 10.4728 49.8215 10.8071V10.4059C49.8215 9.78744 49.6376 9.32773 49.2698 9.02684C48.9188 8.72594 48.3421 8.5755 47.5397 8.5755C46.7874 8.5755 46.0937 8.70087 45.4585 8.95161C44.8232 9.18564 44.1546 9.53669 43.4525 10.0047L42.0734 7.04594C43.8119 5.92594 45.7928 5.36594 48.0161 5.36594C50.1224 5.36594 51.7438 5.834 52.8806 6.77012C54.0173 7.70624 54.5856 9.11042 54.5856 10.9827V13.5403C54.5856 13.9916 54.6525 14.3092 54.7862 14.4931C54.92 14.6603 55.154 14.7606 55.4883 14.794V18.8059C55.1038 18.8895 54.7361 18.948 54.385 18.9815C54.0507 19.0316 53.7498 19.0567 53.4824 19.0567C52.6298 19.0567 51.9779 18.9062 51.5265 18.6053C51.0919 18.2877 50.8077 17.828 50.674 17.2262L50.5737 16.7498C49.9886 17.5021 49.3116 18.0788 48.5426 18.48C47.7737 18.8645 46.9546 19.0567 46.0853 19.0567ZM47.5146 15.6465C47.7988 15.6465 48.0913 15.6047 48.3922 15.5212C48.6931 15.4209 48.9606 15.2955 49.1946 15.145C49.3785 15.0113 49.5289 14.8692 49.6459 14.7188C49.7629 14.5516 49.8215 14.3845 49.8215 14.2173V13.2394C49.5373 13.1391 49.228 13.0555 48.8937 12.9886C48.5594 12.9218 48.2585 12.8883 47.991 12.8883C47.4059 12.8883 46.9212 13.0304 46.5367 13.3146C46.1522 13.5988 45.96 13.9582 45.96 14.3928C45.96 14.7606 46.1021 15.0615 46.3862 15.2955C46.6871 15.5295 47.0632 15.6465 47.5146 15.6465ZM70.4736 18.8059H65.7096V11.3839C65.7096 10.7319 65.5591 10.2639 65.2582 9.97967C64.9741 9.67878 64.6397 9.52833 64.2552 9.52833C63.854 9.52833 63.4278 9.70385 62.9764 10.0549C62.5251 10.4059 62.1908 10.8573 61.9735 11.4089V18.8059H57.2093V5.61669H61.497V7.57251C61.9651 6.8537 62.617 6.31042 63.4529 5.94266C64.3054 5.55818 65.3084 5.36594 66.4618 5.36594C67.3645 5.36594 68.075 5.53311 68.5932 5.86744C69.1281 6.18505 69.5293 6.58624 69.7966 7.07102C70.0808 7.55579 70.2647 8.074 70.3482 8.62564C70.4318 9.17729 70.4736 9.67878 70.4736 10.1301V18.8059ZM77.7634 9.754C77.7634 8.66744 77.964 7.59758 78.3652 6.54445C78.7831 5.49132 79.3849 4.54684 80.1705 3.71102C80.9562 2.8752 81.909 2.19818 83.029 1.67997C84.149 1.16176 85.4278 0.90266 86.8654 0.90266C88.5872 0.90266 90.075 1.26206 91.3287 1.98087C92.5992 2.68296 93.5437 3.61908 94.1622 4.78923L90.426 7.44714C90.2589 7.01251 90.0332 6.65311 89.749 6.36893C89.4816 6.08475 89.1807 5.85908 88.8463 5.69191C88.512 5.52475 88.161 5.40773 87.7932 5.34087C87.4422 5.274 87.0995 5.24057 86.7652 5.24057C86.0631 5.24057 85.4529 5.38266 84.9347 5.66684C84.4332 5.9343 84.0153 6.2937 83.681 6.74505C83.3634 7.17967 83.121 7.68117 82.9538 8.24953C82.8034 8.80117 82.7281 9.35281 82.7281 9.90445C82.7281 10.523 82.8201 11.1164 83.004 11.6847C83.1878 12.2531 83.4553 12.7546 83.8064 13.1892C84.1574 13.6239 84.5837 13.9749 85.0852 14.2424C85.6034 14.4931 86.1801 14.6185 86.8153 14.6185C87.1496 14.6185 87.4923 14.585 87.8434 14.5182C88.1944 14.4346 88.5287 14.3092 88.8463 14.1421C89.1807 13.9582 89.4732 13.7325 89.724 13.465C89.9914 13.1809 90.2004 12.8382 90.3508 12.437L94.3377 14.8191C94.0702 15.471 93.6607 16.0561 93.109 16.5743C92.5741 17.0925 91.9556 17.5271 91.2535 17.8782C90.5681 18.2292 89.8243 18.4967 89.0219 18.6806C88.2362 18.8645 87.4672 18.9564 86.715 18.9564C85.3944 18.9564 84.1825 18.6973 83.0792 18.1791C81.9926 17.6442 81.0481 16.9421 80.2458 16.0728C79.4601 15.2036 78.8499 14.2173 78.4153 13.114C77.9807 12.0107 77.7634 10.8907 77.7634 9.754ZM104.703 9.67878C103.784 9.67878 102.948 9.77908 102.196 9.97967C101.444 10.1803 100.884 10.5146 100.516 10.9827V18.8059H95.7516V5.61669H100.115V8.12415C100.583 7.23818 101.159 6.56117 101.845 6.09311C102.547 5.60833 103.299 5.36594 104.101 5.36594C104.419 5.36594 104.62 5.3743 104.703 5.39102V9.67878ZM110.17 19.0567C108.833 19.0567 107.813 18.6555 107.111 17.8531C106.409 17.034 106.058 15.8471 106.058 14.2925V5.61669H110.822V13.2143C110.822 13.7994 110.948 14.2507 111.198 14.5683C111.466 14.8859 111.825 15.0447 112.276 15.0447C112.644 15.0447 113.02 14.9612 113.405 14.794C113.789 14.6268 114.174 14.2591 114.558 13.6907V5.61669H119.322V13.5403C119.322 13.9916 119.389 14.3092 119.523 14.4931C119.657 14.6603 119.891 14.7606 120.225 14.794V18.8059C119.406 18.9731 118.737 19.0567 118.219 19.0567C116.598 19.0567 115.662 18.4465 115.411 17.2262L115.311 16.7498C114.692 17.5689 113.956 18.1624 113.104 18.5301C112.251 18.8812 111.274 19.0567 110.17 19.0567ZM122.173 18.8059V5.61669H126.937V18.8059H122.173ZM122.173 4.51341V0.501465H126.937V4.51341H122.173ZM128.696 15.9976L134.714 8.87639H129.072V5.61669H139.679V8.42505L133.686 15.5462H139.905V18.8059H128.696V15.9976Z" fill="white"/>
</svg>
